mastitorrents.com
 
http://mastitorrents.com/forums/index.php

Ripper : Rahul
Complete name : Channa Sachi Muchi ( 2010 )
Format : Matroska
File size : 1.36 GiB
Duration : 2h 24mn
Overall bit rate : 1 345 Kbps
Movie name : VIDEO_TS
Encoded date : UTC 2010-10-15 19:10:59

Video
ID : 1
Format : AVC
Format/Info : Advanced Video Codec
Format profile : High@L4.0
Format settings, CABAC : Yes
Format settings, ReFrames : 3 frames
Muxing mode : Container profile=Unknown@4.0
Codec ID : V_MPEG4/ISO/AVC
Duration : 2h 24mn
Bit rate : 870 Kbps
Width : 720 pixels
Height : 298 pixels
Display aspect ratio : 2.40:1
Frame rate : 23.976 fps
Color space : YUV
Chroma subsampling : 4:2:0
Bit depth : 8 bits
Scan type : Progressive
Bits/(Pixel*Frame) : 0.169
Stream size : 898 MiB (65%)
Writing library : x264 core 105 r1732 2b04482


Audio
ID : 2
Format : AC-3
Format/Info : Audio Coding 3
Mode extension : CM (complete main)
Codec ID : A_AC3
Duration : 2h 24mn
Bit rate mode : Constant
Bit rate : 448 Kbps
Channel(s) : 6 channels
Channel positions : Front: L C R, Side: L R, LFE
Sampling rate : 48.0 KHz
Bit depth : 16 bits
Stream size : 462 MiB (33%)

CAST

Miss Pooja

Goldy Somal

Jas Prem Dhillon

Rana Ranbir

Producer Iqbal Dhillon

Writer & Director

Harinder Gill